%TF.GenerationSoftware,KiCad,Pcbnew,(5.1.10)-1*%
%TF.CreationDate,2021-11-30T19:49:35-05:00*%
%TF.ProjectId,Microwave_Circuit,4d696372-6f77-4617-9665-5f4369726375,rev?*%
%TF.SameCoordinates,Original*%
%TF.FileFunction,Copper,L2,Bot*%
%TF.FilePolarity,Positive*%
%FSLAX46Y46*%
G04 Gerber Fmt 4.6, Leading zero omitted, Abs format (unit mm)*
G04 Created by KiCad (PCBNEW (5.1.10)-1) date 2021-11-30 19:49:35*
%MOMM*%
%LPD*%
G01*
G04 APERTURE LIST*
%TA.AperFunction,SMDPad,CuDef*%
%ADD10R,2.200000X1.050000*%
%TD*%
%TA.AperFunction,SMDPad,CuDef*%
%ADD11R,1.050000X1.000000*%
%TD*%
%TA.AperFunction,ComponentPad*%
%ADD12C,1.508000*%
%TD*%
%TA.AperFunction,ComponentPad*%
%ADD13R,1.508000X1.508000*%
%TD*%
%TA.AperFunction,Conductor*%
%ADD14C,0.250000*%
%TD*%
G04 APERTURE END LIST*
%TO.P,R1,1*%
%TO.N,Net-(D1-Pad1)*%
%TA.AperFunction,SMDPad,CuDef*%
G36*
G01*
X191384500Y-69157001D02*
X191384500Y-68256999D01*
G75*
G02*
X191634499Y-68007000I249999J0D01*
G01*
X192159501Y-68007000D01*
G75*
G02*
X192409500Y-68256999I0J-249999D01*
G01*
X192409500Y-69157001D01*
G75*
G02*
X192159501Y-69407000I-249999J0D01*
G01*
X191634499Y-69407000D01*
G75*
G02*
X191384500Y-69157001I0J249999D01*
G01*
G37*
%TD.AperFunction*%
%TO.P,R1,2*%
%TO.N,Net-(D4-PadA)*%
%TA.AperFunction,SMDPad,CuDef*%
G36*
G01*
X193209500Y-69157001D02*
X193209500Y-68256999D01*
G75*
G02*
X193459499Y-68007000I249999J0D01*
G01*
X193984501Y-68007000D01*
G75*
G02*
X194234500Y-68256999I0J-249999D01*
G01*
X194234500Y-69157001D01*
G75*
G02*
X193984501Y-69407000I-249999J0D01*
G01*
X193459499Y-69407000D01*
G75*
G02*
X193209500Y-69157001I0J249999D01*
G01*
G37*
%TD.AperFunction*%
%TD*%
D10*
%TO.P,J1,G1*%
%TO.N,GND*%
X174244000Y-66851000D03*
%TO.P,J1,G2*%
X174244000Y-69801000D03*
D11*
%TO.P,J1,1*%
%TO.N,Net-(C1-Pad2)*%
X175769000Y-68326000D03*
%TD*%
%TO.P,D5,1*%
%TO.N,Net-(C2-Pad2)*%
%TA.AperFunction,SMDPad,CuDef*%
G36*
G01*
X183550500Y-73227250D02*
X183550500Y-72314750D01*
G75*
G02*
X183794250Y-72071000I243750J0D01*
G01*
X184281750Y-72071000D01*
G75*
G02*
X184525500Y-72314750I0J-243750D01*
G01*
X184525500Y-73227250D01*
G75*
G02*
X184281750Y-73471000I-243750J0D01*
G01*
X183794250Y-73471000D01*
G75*
G02*
X183550500Y-73227250I0J243750D01*
G01*
G37*
%TD.AperFunction*%
%TO.P,D5,2*%
%TO.N,GND*%
%TA.AperFunction,SMDPad,CuDef*%
G36*
G01*
X185425500Y-73227250D02*
X185425500Y-72314750D01*
G75*
G02*
X185669250Y-72071000I243750J0D01*
G01*
X186156750Y-72071000D01*
G75*
G02*
X186400500Y-72314750I0J-243750D01*
G01*
X186400500Y-73227250D01*
G75*
G02*
X186156750Y-73471000I-243750J0D01*
G01*
X185669250Y-73471000D01*
G75*
G02*
X185425500Y-73227250I0J243750D01*
G01*
G37*
%TD.AperFunction*%
%TD*%
D12*
%TO.P,D4,A*%
%TO.N,Net-(D4-PadA)*%
X200152000Y-73914000D03*
D13*
%TO.P,D4,C*%
%TO.N,GND*%
X197612000Y-73914000D03*
%TD*%
%TO.P,D3,2*%
%TO.N,Net-(C2-Pad2)*%
%TA.AperFunction,SMDPad,CuDef*%
G36*
G01*
X184462000Y-69774750D02*
X184462000Y-70687250D01*
G75*
G02*
X184218250Y-70931000I-243750J0D01*
G01*
X183730750Y-70931000D01*
G75*
G02*
X183487000Y-70687250I0J243750D01*
G01*
X183487000Y-69774750D01*
G75*
G02*
X183730750Y-69531000I243750J0D01*
G01*
X184218250Y-69531000D01*
G75*
G02*
X184462000Y-69774750I0J-243750D01*
G01*
G37*
%TD.AperFunction*%
%TO.P,D3,1*%
%TO.N,Net-(D2-Pad2)*%
%TA.AperFunction,SMDPad,CuDef*%
G36*
G01*
X186337000Y-69774750D02*
X186337000Y-70687250D01*
G75*
G02*
X186093250Y-70931000I-243750J0D01*
G01*
X185605750Y-70931000D01*
G75*
G02*
X185362000Y-70687250I0J243750D01*
G01*
X185362000Y-69774750D01*
G75*
G02*
X185605750Y-69531000I243750J0D01*
G01*
X186093250Y-69531000D01*
G75*
G02*
X186337000Y-69774750I0J-243750D01*
G01*
G37*
%TD.AperFunction*%
%TD*%
%TO.P,D2,1*%
%TO.N,Net-(C1-Pad1)*%
%TA.AperFunction,SMDPad,CuDef*%
G36*
G01*
X183487000Y-66877250D02*
X183487000Y-65964750D01*
G75*
G02*
X183730750Y-65721000I243750J0D01*
G01*
X184218250Y-65721000D01*
G75*
G02*
X184462000Y-65964750I0J-243750D01*
G01*
X184462000Y-66877250D01*
G75*
G02*
X184218250Y-67121000I-243750J0D01*
G01*
X183730750Y-67121000D01*
G75*
G02*
X183487000Y-66877250I0J243750D01*
G01*
G37*
%TD.AperFunction*%
%TO.P,D2,2*%
%TO.N,Net-(D2-Pad2)*%
%TA.AperFunction,SMDPad,CuDef*%
G36*
G01*
X185362000Y-66877250D02*
X185362000Y-65964750D01*
G75*
G02*
X185605750Y-65721000I243750J0D01*
G01*
X186093250Y-65721000D01*
G75*
G02*
X186337000Y-65964750I0J-243750D01*
G01*
X186337000Y-66877250D01*
G75*
G02*
X186093250Y-67121000I-243750J0D01*
G01*
X185605750Y-67121000D01*
G75*
G02*
X185362000Y-66877250I0J243750D01*
G01*
G37*
%TD.AperFunction*%
%TD*%
%TO.P,D1,2*%
%TO.N,Net-(C1-Pad1)*%
%TA.AperFunction,SMDPad,CuDef*%
G36*
G01*
X184462000Y-63424750D02*
X184462000Y-64337250D01*
G75*
G02*
X184218250Y-64581000I-243750J0D01*
G01*
X183730750Y-64581000D01*
G75*
G02*
X183487000Y-64337250I0J243750D01*
G01*
X183487000Y-63424750D01*
G75*
G02*
X183730750Y-63181000I243750J0D01*
G01*
X184218250Y-63181000D01*
G75*
G02*
X184462000Y-63424750I0J-243750D01*
G01*
G37*
%TD.AperFunction*%
%TO.P,D1,1*%
%TO.N,Net-(D1-Pad1)*%
%TA.AperFunction,SMDPad,CuDef*%
G36*
G01*
X186337000Y-63424750D02*
X186337000Y-64337250D01*
G75*
G02*
X186093250Y-64581000I-243750J0D01*
G01*
X185605750Y-64581000D01*
G75*
G02*
X185362000Y-64337250I0J243750D01*
G01*
X185362000Y-63424750D01*
G75*
G02*
X185605750Y-63181000I243750J0D01*
G01*
X186093250Y-63181000D01*
G75*
G02*
X186337000Y-63424750I0J-243750D01*
G01*
G37*
%TD.AperFunction*%
%TD*%
%TO.P,C2,1*%
%TO.N,Net-(C1-Pad2)*%
%TA.AperFunction,SMDPad,CuDef*%
G36*
G01*
X177813000Y-70071000D02*
X177813000Y-69121000D01*
G75*
G02*
X178063000Y-68871000I250000J0D01*
G01*
X178563000Y-68871000D01*
G75*
G02*
X178813000Y-69121000I0J-250000D01*
G01*
X178813000Y-70071000D01*
G75*
G02*
X178563000Y-70321000I-250000J0D01*
G01*
X178063000Y-70321000D01*
G75*
G02*
X177813000Y-70071000I0J250000D01*
G01*
G37*
%TD.AperFunction*%
%TO.P,C2,2*%
%TO.N,Net-(C2-Pad2)*%
%TA.AperFunction,SMDPad,CuDef*%
G36*
G01*
X179713000Y-70071000D02*
X179713000Y-69121000D01*
G75*
G02*
X179963000Y-68871000I250000J0D01*
G01*
X180463000Y-68871000D01*
G75*
G02*
X180713000Y-69121000I0J-250000D01*
G01*
X180713000Y-70071000D01*
G75*
G02*
X180463000Y-70321000I-250000J0D01*
G01*
X179963000Y-70321000D01*
G75*
G02*
X179713000Y-70071000I0J250000D01*
G01*
G37*
%TD.AperFunction*%
%TD*%
%TO.P,C1,1*%
%TO.N,Net-(C1-Pad1)*%
%TA.AperFunction,SMDPad,CuDef*%
G36*
G01*
X180708000Y-66581000D02*
X180708000Y-67531000D01*
G75*
G02*
X180458000Y-67781000I-250000J0D01*
G01*
X179958000Y-67781000D01*
G75*
G02*
X179708000Y-67531000I0J250000D01*
G01*
X179708000Y-66581000D01*
G75*
G02*
X179958000Y-66331000I250000J0D01*
G01*
X180458000Y-66331000D01*
G75*
G02*
X180708000Y-66581000I0J-250000D01*
G01*
G37*
%TD.AperFunction*%
%TO.P,C1,2*%
%TO.N,Net-(C1-Pad2)*%
%TA.AperFunction,SMDPad,CuDef*%
G36*
G01*
X178808000Y-66581000D02*
X178808000Y-67531000D01*
G75*
G02*
X178558000Y-67781000I-250000J0D01*
G01*
X178058000Y-67781000D01*
G75*
G02*
X177808000Y-67531000I0J250000D01*
G01*
X177808000Y-66581000D01*
G75*
G02*
X178058000Y-66331000I250000J0D01*
G01*
X178558000Y-66331000D01*
G75*
G02*
X178808000Y-66581000I0J-250000D01*
G01*
G37*
%TD.AperFunction*%
%TD*%
D14*
%TO.N,Net-(C1-Pad2)*%
X178308000Y-67056000D02*
X177419000Y-67056000D01*
X177419000Y-67056000D02*
X177165000Y-67310000D01*
X177165000Y-67310000D02*
X177165000Y-68072000D01*
X176911000Y-68326000D02*
X175769000Y-68326000D01*
X177165000Y-68072000D02*
X176911000Y-68326000D01*
X176911000Y-68326000D02*
X177165000Y-68580000D01*
X177165000Y-68580000D02*
X177165000Y-69342000D01*
X177419000Y-69596000D02*
X177165000Y-69342000D01*
X178313000Y-69596000D02*
X177419000Y-69596000D01*
%TO.N,Net-(C1-Pad1)*%
X180208000Y-67056000D02*
X181483000Y-67056000D01*
X182118000Y-66421000D02*
X183974500Y-66421000D01*
X181483000Y-67056000D02*
X182118000Y-66421000D01*
X183974500Y-63881000D02*
X183974500Y-66421000D01*
%TO.N,Net-(C2-Pad2)*%
X180213000Y-69596000D02*
X181483000Y-69596000D01*
X181483000Y-69596000D02*
X182118000Y-70231000D01*
X182118000Y-70231000D02*
X183974500Y-70231000D01*
X183974500Y-72707500D02*
X184038000Y-72771000D01*
X183974500Y-70231000D02*
X183974500Y-72707500D01*
%TO.N,Net-(D1-Pad1)*%
X185849500Y-63881000D02*
X191198500Y-63881000D01*
X191897000Y-64579500D02*
X191897000Y-68707000D01*
X191198500Y-63881000D02*
X191897000Y-64579500D01*
%TO.N,Net-(D2-Pad2)*%
X185849500Y-66421000D02*
X185849500Y-70231000D01*
%TO.N,Net-(D4-PadA)*%
X194945000Y-68707000D02*
X193722000Y-68707000D01*
X200152000Y-73914000D02*
X194945000Y-68707000D01*
%TO.N,GND*%
X197612000Y-73914000D02*
X197612000Y-73660000D01*
X174244000Y-66851000D02*
X174244000Y-69801000D01*
X174244000Y-73660000D02*
X174244000Y-69801000D01*
X185913000Y-72771000D02*
X195135500Y-72771000D01*
X196278500Y-73914000D02*
X197612000Y-73914000D01*
X195135500Y-72771000D02*
X196278500Y-73914000D01*
X185913000Y-72771000D02*
X185913000Y-74119500D01*
X185913000Y-74119500D02*
X185483500Y-74549000D01*
X175133000Y-74549000D02*
X174244000Y-73660000D01*
X185483500Y-74549000D02*
X175133000Y-74549000D01*
%TD*%
M02*
