%TF.GenerationSoftware,KiCad,Pcbnew,(5.1.10)-1*%
%TF.CreationDate,2021-11-30T19:49:35-05:00*%
%TF.ProjectId,Microwave_Circuit,4d696372-6f77-4617-9665-5f4369726375,rev?*%
%TF.SameCoordinates,Original*%
%TF.FileFunction,Legend,Bot*%
%TF.FilePolarity,Positive*%
%FSLAX46Y46*%
G04 Gerber Fmt 4.6, Leading zero omitted, Abs format (unit mm)*
G04 Created by KiCad (PCBNEW (5.1.10)-1) date 2021-11-30 19:49:35*
%MOMM*%
%LPD*%
G01*
G04 APERTURE LIST*
%ADD10C,0.120000*%
%ADD11C,0.200000*%
%ADD12C,0.150000*%
G04 APERTURE END LIST*
D10*
%TO.C,R1*%
X192582436Y-67972000D02*
X193036564Y-67972000D01*
X192582436Y-69442000D02*
X193036564Y-69442000D01*
D11*
%TO.C,J1*%
X175694000Y-69176000D02*
X175694000Y-69626000D01*
X175694000Y-67476000D02*
X175694000Y-67026000D01*
X172794000Y-69626000D02*
X172794000Y-67026000D01*
X176944000Y-68326000D02*
G75*
G03*
X176944000Y-68326000I-100000J0D01*
G01*
D10*
%TO.C,D5*%
X183290500Y-71811000D02*
X185975500Y-71811000D01*
X183290500Y-73731000D02*
X183290500Y-71811000D01*
X185975500Y-73731000D02*
X183290500Y-73731000D01*
%TO.C,D3*%
X183912000Y-69271000D02*
X186597000Y-69271000D01*
X186597000Y-69271000D02*
X186597000Y-71191000D01*
X186597000Y-71191000D02*
X183912000Y-71191000D01*
%TO.C,D2*%
X183227000Y-65461000D02*
X185912000Y-65461000D01*
X183227000Y-67381000D02*
X183227000Y-65461000D01*
X185912000Y-67381000D02*
X183227000Y-67381000D01*
%TO.C,D1*%
X183912000Y-62921000D02*
X186597000Y-62921000D01*
X186597000Y-62921000D02*
X186597000Y-64841000D01*
X186597000Y-64841000D02*
X183912000Y-64841000D01*
%TO.C,C2*%
X179001748Y-68861000D02*
X179524252Y-68861000D01*
X179001748Y-70331000D02*
X179524252Y-70331000D01*
%TO.C,C1*%
X179519252Y-67791000D02*
X178996748Y-67791000D01*
X179519252Y-66321000D02*
X178996748Y-66321000D01*
%TO.C,R1*%
D12*
X192976166Y-70809380D02*
X193309500Y-70333190D01*
X193547595Y-70809380D02*
X193547595Y-69809380D01*
X193166642Y-69809380D01*
X193071404Y-69857000D01*
X193023785Y-69904619D01*
X192976166Y-69999857D01*
X192976166Y-70142714D01*
X193023785Y-70237952D01*
X193071404Y-70285571D01*
X193166642Y-70333190D01*
X193547595Y-70333190D01*
X192023785Y-70809380D02*
X192595214Y-70809380D01*
X192309500Y-70809380D02*
X192309500Y-69809380D01*
X192404738Y-69952238D01*
X192499976Y-70047476D01*
X192595214Y-70095095D01*
%TO.C,J1*%
X173830023Y-64937666D02*
X174287166Y-64937666D01*
X174378595Y-64907190D01*
X174439547Y-64846238D01*
X174470023Y-64754809D01*
X174470023Y-64693857D01*
X174470023Y-65577666D02*
X174470023Y-65211952D01*
X174470023Y-65394809D02*
X173830023Y-65394809D01*
X173921452Y-65333857D01*
X173982404Y-65272904D01*
X174012880Y-65211952D01*
%TO.C,D5*%
X182983095Y-73223380D02*
X182983095Y-72223380D01*
X182745000Y-72223380D01*
X182602142Y-72271000D01*
X182506904Y-72366238D01*
X182459285Y-72461476D01*
X182411666Y-72651952D01*
X182411666Y-72794809D01*
X182459285Y-72985285D01*
X182506904Y-73080523D01*
X182602142Y-73175761D01*
X182745000Y-73223380D01*
X182983095Y-73223380D01*
X181506904Y-72223380D02*
X181983095Y-72223380D01*
X182030714Y-72699571D01*
X181983095Y-72651952D01*
X181887857Y-72604333D01*
X181649761Y-72604333D01*
X181554523Y-72651952D01*
X181506904Y-72699571D01*
X181459285Y-72794809D01*
X181459285Y-73032904D01*
X181506904Y-73128142D01*
X181554523Y-73175761D01*
X181649761Y-73223380D01*
X181887857Y-73223380D01*
X181983095Y-73175761D01*
X182030714Y-73128142D01*
%TO.C,D3*%
X188444095Y-70683380D02*
X188444095Y-69683380D01*
X188206000Y-69683380D01*
X188063142Y-69731000D01*
X187967904Y-69826238D01*
X187920285Y-69921476D01*
X187872666Y-70111952D01*
X187872666Y-70254809D01*
X187920285Y-70445285D01*
X187967904Y-70540523D01*
X188063142Y-70635761D01*
X188206000Y-70683380D01*
X188444095Y-70683380D01*
X187539333Y-69683380D02*
X186920285Y-69683380D01*
X187253619Y-70064333D01*
X187110761Y-70064333D01*
X187015523Y-70111952D01*
X186967904Y-70159571D01*
X186920285Y-70254809D01*
X186920285Y-70492904D01*
X186967904Y-70588142D01*
X187015523Y-70635761D01*
X187110761Y-70683380D01*
X187396476Y-70683380D01*
X187491714Y-70635761D01*
X187539333Y-70588142D01*
%TO.C,D2*%
X188380595Y-66873380D02*
X188380595Y-65873380D01*
X188142500Y-65873380D01*
X187999642Y-65921000D01*
X187904404Y-66016238D01*
X187856785Y-66111476D01*
X187809166Y-66301952D01*
X187809166Y-66444809D01*
X187856785Y-66635285D01*
X187904404Y-66730523D01*
X187999642Y-66825761D01*
X188142500Y-66873380D01*
X188380595Y-66873380D01*
X187428214Y-65968619D02*
X187380595Y-65921000D01*
X187285357Y-65873380D01*
X187047261Y-65873380D01*
X186952023Y-65921000D01*
X186904404Y-65968619D01*
X186856785Y-66063857D01*
X186856785Y-66159095D01*
X186904404Y-66301952D01*
X187475833Y-66873380D01*
X186856785Y-66873380D01*
%TO.C,D1*%
X182919595Y-64333380D02*
X182919595Y-63333380D01*
X182681500Y-63333380D01*
X182538642Y-63381000D01*
X182443404Y-63476238D01*
X182395785Y-63571476D01*
X182348166Y-63761952D01*
X182348166Y-63904809D01*
X182395785Y-64095285D01*
X182443404Y-64190523D01*
X182538642Y-64285761D01*
X182681500Y-64333380D01*
X182919595Y-64333380D01*
X181395785Y-64333380D02*
X181967214Y-64333380D01*
X181681500Y-64333380D02*
X181681500Y-63333380D01*
X181776738Y-63476238D01*
X181871976Y-63571476D01*
X181967214Y-63619095D01*
%TO.C,C2*%
X179429666Y-71633142D02*
X179477285Y-71680761D01*
X179620142Y-71728380D01*
X179715380Y-71728380D01*
X179858238Y-71680761D01*
X179953476Y-71585523D01*
X180001095Y-71490285D01*
X180048714Y-71299809D01*
X180048714Y-71156952D01*
X180001095Y-70966476D01*
X179953476Y-70871238D01*
X179858238Y-70776000D01*
X179715380Y-70728380D01*
X179620142Y-70728380D01*
X179477285Y-70776000D01*
X179429666Y-70823619D01*
X179048714Y-70823619D02*
X179001095Y-70776000D01*
X178905857Y-70728380D01*
X178667761Y-70728380D01*
X178572523Y-70776000D01*
X178524904Y-70823619D01*
X178477285Y-70918857D01*
X178477285Y-71014095D01*
X178524904Y-71156952D01*
X179096333Y-71728380D01*
X178477285Y-71728380D01*
%TO.C,C1*%
X179490666Y-65762142D02*
X179538285Y-65809761D01*
X179681142Y-65857380D01*
X179776380Y-65857380D01*
X179919238Y-65809761D01*
X180014476Y-65714523D01*
X180062095Y-65619285D01*
X180109714Y-65428809D01*
X180109714Y-65285952D01*
X180062095Y-65095476D01*
X180014476Y-65000238D01*
X179919238Y-64905000D01*
X179776380Y-64857380D01*
X179681142Y-64857380D01*
X179538285Y-64905000D01*
X179490666Y-64952619D01*
X178538285Y-65857380D02*
X179109714Y-65857380D01*
X178824000Y-65857380D02*
X178824000Y-64857380D01*
X178919238Y-65000238D01*
X179014476Y-65095476D01*
X179109714Y-65143095D01*
%TD*%
M02*
