%TF.GenerationSoftware,KiCad,Pcbnew,(5.1.10)-1*%
%TF.CreationDate,2021-11-30T19:49:35-05:00*%
%TF.ProjectId,Microwave_Circuit,4d696372-6f77-4617-9665-5f4369726375,rev?*%
%TF.SameCoordinates,Original*%
%TF.FileFunction,Soldermask,Bot*%
%TF.FilePolarity,Negative*%
%FSLAX46Y46*%
G04 Gerber Fmt 4.6, Leading zero omitted, Abs format (unit mm)*
G04 Created by KiCad (PCBNEW (5.1.10)-1) date 2021-11-30 19:49:35*
%MOMM*%
%LPD*%
G01*
G04 APERTURE LIST*
%ADD10R,2.200000X1.050000*%
%ADD11R,1.050000X1.000000*%
%ADD12C,1.508000*%
%ADD13R,1.508000X1.508000*%
G04 APERTURE END LIST*
%TO.C,R1*%
G36*
G01*
X191384500Y-69157001D02*
X191384500Y-68256999D01*
G75*
G02*
X191634499Y-68007000I249999J0D01*
G01*
X192159501Y-68007000D01*
G75*
G02*
X192409500Y-68256999I0J-249999D01*
G01*
X192409500Y-69157001D01*
G75*
G02*
X192159501Y-69407000I-249999J0D01*
G01*
X191634499Y-69407000D01*
G75*
G02*
X191384500Y-69157001I0J249999D01*
G01*
G37*
G36*
G01*
X193209500Y-69157001D02*
X193209500Y-68256999D01*
G75*
G02*
X193459499Y-68007000I249999J0D01*
G01*
X193984501Y-68007000D01*
G75*
G02*
X194234500Y-68256999I0J-249999D01*
G01*
X194234500Y-69157001D01*
G75*
G02*
X193984501Y-69407000I-249999J0D01*
G01*
X193459499Y-69407000D01*
G75*
G02*
X193209500Y-69157001I0J249999D01*
G01*
G37*
%TD*%
D10*
%TO.C,J1*%
X174244000Y-66851000D03*
X174244000Y-69801000D03*
D11*
X175769000Y-68326000D03*
%TD*%
%TO.C,D5*%
G36*
G01*
X183550500Y-73227250D02*
X183550500Y-72314750D01*
G75*
G02*
X183794250Y-72071000I243750J0D01*
G01*
X184281750Y-72071000D01*
G75*
G02*
X184525500Y-72314750I0J-243750D01*
G01*
X184525500Y-73227250D01*
G75*
G02*
X184281750Y-73471000I-243750J0D01*
G01*
X183794250Y-73471000D01*
G75*
G02*
X183550500Y-73227250I0J243750D01*
G01*
G37*
G36*
G01*
X185425500Y-73227250D02*
X185425500Y-72314750D01*
G75*
G02*
X185669250Y-72071000I243750J0D01*
G01*
X186156750Y-72071000D01*
G75*
G02*
X186400500Y-72314750I0J-243750D01*
G01*
X186400500Y-73227250D01*
G75*
G02*
X186156750Y-73471000I-243750J0D01*
G01*
X185669250Y-73471000D01*
G75*
G02*
X185425500Y-73227250I0J243750D01*
G01*
G37*
%TD*%
D12*
%TO.C,D4*%
X200152000Y-73914000D03*
D13*
X197612000Y-73914000D03*
%TD*%
%TO.C,D3*%
G36*
G01*
X184462000Y-69774750D02*
X184462000Y-70687250D01*
G75*
G02*
X184218250Y-70931000I-243750J0D01*
G01*
X183730750Y-70931000D01*
G75*
G02*
X183487000Y-70687250I0J243750D01*
G01*
X183487000Y-69774750D01*
G75*
G02*
X183730750Y-69531000I243750J0D01*
G01*
X184218250Y-69531000D01*
G75*
G02*
X184462000Y-69774750I0J-243750D01*
G01*
G37*
G36*
G01*
X186337000Y-69774750D02*
X186337000Y-70687250D01*
G75*
G02*
X186093250Y-70931000I-243750J0D01*
G01*
X185605750Y-70931000D01*
G75*
G02*
X185362000Y-70687250I0J243750D01*
G01*
X185362000Y-69774750D01*
G75*
G02*
X185605750Y-69531000I243750J0D01*
G01*
X186093250Y-69531000D01*
G75*
G02*
X186337000Y-69774750I0J-243750D01*
G01*
G37*
%TD*%
%TO.C,D2*%
G36*
G01*
X183487000Y-66877250D02*
X183487000Y-65964750D01*
G75*
G02*
X183730750Y-65721000I243750J0D01*
G01*
X184218250Y-65721000D01*
G75*
G02*
X184462000Y-65964750I0J-243750D01*
G01*
X184462000Y-66877250D01*
G75*
G02*
X184218250Y-67121000I-243750J0D01*
G01*
X183730750Y-67121000D01*
G75*
G02*
X183487000Y-66877250I0J243750D01*
G01*
G37*
G36*
G01*
X185362000Y-66877250D02*
X185362000Y-65964750D01*
G75*
G02*
X185605750Y-65721000I243750J0D01*
G01*
X186093250Y-65721000D01*
G75*
G02*
X186337000Y-65964750I0J-243750D01*
G01*
X186337000Y-66877250D01*
G75*
G02*
X186093250Y-67121000I-243750J0D01*
G01*
X185605750Y-67121000D01*
G75*
G02*
X185362000Y-66877250I0J243750D01*
G01*
G37*
%TD*%
%TO.C,D1*%
G36*
G01*
X184462000Y-63424750D02*
X184462000Y-64337250D01*
G75*
G02*
X184218250Y-64581000I-243750J0D01*
G01*
X183730750Y-64581000D01*
G75*
G02*
X183487000Y-64337250I0J243750D01*
G01*
X183487000Y-63424750D01*
G75*
G02*
X183730750Y-63181000I243750J0D01*
G01*
X184218250Y-63181000D01*
G75*
G02*
X184462000Y-63424750I0J-243750D01*
G01*
G37*
G36*
G01*
X186337000Y-63424750D02*
X186337000Y-64337250D01*
G75*
G02*
X186093250Y-64581000I-243750J0D01*
G01*
X185605750Y-64581000D01*
G75*
G02*
X185362000Y-64337250I0J243750D01*
G01*
X185362000Y-63424750D01*
G75*
G02*
X185605750Y-63181000I243750J0D01*
G01*
X186093250Y-63181000D01*
G75*
G02*
X186337000Y-63424750I0J-243750D01*
G01*
G37*
%TD*%
%TO.C,C2*%
G36*
G01*
X177813000Y-70071000D02*
X177813000Y-69121000D01*
G75*
G02*
X178063000Y-68871000I250000J0D01*
G01*
X178563000Y-68871000D01*
G75*
G02*
X178813000Y-69121000I0J-250000D01*
G01*
X178813000Y-70071000D01*
G75*
G02*
X178563000Y-70321000I-250000J0D01*
G01*
X178063000Y-70321000D01*
G75*
G02*
X177813000Y-70071000I0J250000D01*
G01*
G37*
G36*
G01*
X179713000Y-70071000D02*
X179713000Y-69121000D01*
G75*
G02*
X179963000Y-68871000I250000J0D01*
G01*
X180463000Y-68871000D01*
G75*
G02*
X180713000Y-69121000I0J-250000D01*
G01*
X180713000Y-70071000D01*
G75*
G02*
X180463000Y-70321000I-250000J0D01*
G01*
X179963000Y-70321000D01*
G75*
G02*
X179713000Y-70071000I0J250000D01*
G01*
G37*
%TD*%
%TO.C,C1*%
G36*
G01*
X180708000Y-66581000D02*
X180708000Y-67531000D01*
G75*
G02*
X180458000Y-67781000I-250000J0D01*
G01*
X179958000Y-67781000D01*
G75*
G02*
X179708000Y-67531000I0J250000D01*
G01*
X179708000Y-66581000D01*
G75*
G02*
X179958000Y-66331000I250000J0D01*
G01*
X180458000Y-66331000D01*
G75*
G02*
X180708000Y-66581000I0J-250000D01*
G01*
G37*
G36*
G01*
X178808000Y-66581000D02*
X178808000Y-67531000D01*
G75*
G02*
X178558000Y-67781000I-250000J0D01*
G01*
X178058000Y-67781000D01*
G75*
G02*
X177808000Y-67531000I0J250000D01*
G01*
X177808000Y-66581000D01*
G75*
G02*
X178058000Y-66331000I250000J0D01*
G01*
X178558000Y-66331000D01*
G75*
G02*
X178808000Y-66581000I0J-250000D01*
G01*
G37*
%TD*%
M02*
